{"title":"The Usual Suspects (1995) BRRIP.XVID.AC3-BBRG","uid":6589397,"size":1724062796,"categoryP":"video","categoryS":"movies","magnet":"?xt=urn:btih:6565bd741dbba1606dbb4bbdb4d4f58c2289ef36&amp;dn=The+Usual+Suspects+%281995%29+BRRIP.XVID.AC3-BBRG&amp;tr=udp%3A%2F%2Ftracker.openbittorrent.com%3A80&amp;tr=udp%3A%2F%2Fopen.demonii.com%3A1337&amp;tr=udp%3A%2F%2Ftracker.coppersurfer.tk%3A6969&amp;tr=udp%3A%2F%2Fexodus.desync.com%3A6969","seeders":0,"leechers":1,"uploader":"TvTeam","files":4,"time":1312755541,"description":". \n  &lt;a href=&quot;\nhttp://www.torrenting.com/&quot; rel=&quot;nofollow&quot; target=&quot;_NEW&quot;&gt;\nhttp://www.torrenting.com/&lt;/a&gt;        :     Greatest Movie Tracker on The Net!!!\n &lt;a href=&quot;\nhttp://www.Torrenting.com&quot; rel=&quot;nofollow&quot; target=&quot;_NEW&quot;&gt;\nhttp://www.Torrenting.com&lt;/a&gt;          :     Once &amp; For all ;)\n\n\n               www . Torrenting . Com \n\n(((((((((((((= Enjoy No RAR releases =))))))))))))))))))))\n\n\n...................................NFO:....................................\n\n.\n ______ ______                         ______              ___________\n ___  /____  /___  ______________      ___  /________________  /___  /_____________________ ______________ _\n __  __ \\_  /_  / / /  _ \\_  ___/________  __ \\_  ___/  __ \\  __/_  __ \\  _ \\_  ___/_  ___/ __  ___/_  __ `/\n _  /_/ /  / / /_/ //  __/(__  )_/_____/  /_/ /  /   / /_/ / /_ _  / / /  __/  /   _(__  )___  /   _  /_/ /\n /_.___//_/  \\__,_/ \\___//____/        /_.___//_/    \\____/\\__/ /_/ /_/\\___//_/    /____/_(_)_/    _\\__, /\n                                                                                                   /____/\n                                     ___________                    ___________\n                              ______ ___  /__  /____  _____________ __  /__&lt;  /\n                              _  __ `/_  /__  /__  / / /  ___/  __ `/  __/_  /\n                              / /_/ /_  / _  / _  /_/ // /__ / /_/ // /_ _  /\n                              \\__,_/ /_/  /_/  _\\__, / \\___/ \\__,_/ \\__/ /_/\n                                               /____/\n\n\n\n\n\n\nGeneral\nRELEASE DATE 5/8/2011\nComplete name                    : The.Usual.Suspects.(1995).BRRIP.XVID.AC3-BBRG.avi\nFormat                           : AVI\nFormat/Info                      : Audio Video Interleave\nFile size                        : 1.61 GiB\nDuration                         : 1h 46mn\nOverall bit rate                 : 2 167 Kbps\n\nVideo\nID                               : 0\nFormat                           : MPEG-4 Visual\nFormat profile                   : Advanced Simple@L5\nFormat settings, BVOP            : 2\nFormat settings, QPel            : No\nFormat settings, GMC             : No warppoints\nFormat settings, Matrix          : Default (H.263)\nMuxing mode                      : Packed bitstream\nCodec ID                         : XVID\nCodec ID/Hint                    : XviD\nDuration                         : 1h 46mn\nBit rate                         : 1 711 Kbps\nWidth                            : 720 pixels\nHeight                           : 304 pixels\nDisplay aspect ratio             : 2.35:1\nFrame rate                       : 25.000 fps\nColor space                      : YUV\nChroma subsampling               : 4:2:0\nBit depth                        : 8 bits\nScan type                        : Progressive\nCompression mode                 : Lossy\nBits/(Pixel*Frame)               : 0.313\nStream size                      : 1.27 GiB (79%)\nWriting library                  : XviD 1.2.1 (UTC 2008-12-04)\n\nAudio\nID                               : 1\nFormat                           : AC-3\nFormat/Info                      : Audio Coding 3\nMode extension                   : CM (complete main)\nCodec ID                         : 2000\nDuration                         : 1h 46mn\nBit rate mode                    : Constant\nBit rate                         : 448 Kbps\nChannel(s)                       : 2 channels\nChannel positions                : Front: L R\nSampling rate                    : 48.0 KHz\nBit depth                        : 16 bits\nCompression mode                 : Lossy\nStream size                      : 340 MiB (21%)\nAlignment                        : Aligned on interleaves\nInterleave, duration             : 64 ms (1.60 video frames)\nInterleave, preload duration     : 192 ms\n\nEncoder:allycat1","torrent":{"xt":"urn:btih:6565bd741dbba1606dbb4bbdb4d4f58c2289ef36","amp;dn":"The+Usual+Suspects+%281995%29+BRRIP.XVID.AC3-BBRG","amp;tr":["udp%3A%2F%2Ftracker.openbittorrent.com%3A80","udp%3A%2F%2Fopen.demonii.com%3A1337","udp%3A%2F%2Ftracker.coppersurfer.tk%3A6969","udp%3A%2F%2Fexodus.desync.com%3A6969"],"infoHash":"6565bd741dbba1606dbb4bbdb4d4f58c2289ef36","infoHashBuffer":{"type":"Buffer","data":[101,101,189,116,29,187,161,96,109,187,75,189,180,212,245,140,34,137,239,54]},"announce":[],"urlList":[]}}